<?xml version="1.0" encoding="UTF-8"?>
<svg xmlns="http://www.w3.org/2000/svg" xmlns:xlink="http://www.w3.org/1999/xlink" width="3840px" height="2560px" viewBox="0 0 3840 2560" version="1.1">
<g id="surface1">
<path style=" stroke:none;fill-rule:nonzero;fill:rgb(32.54902%,50.980392%,63.137255%);fill-opacity:1;" d="M 2340.15625 1772.503906 L 2333.726562 1772.503906 L 2333.726562 1768.90625 L 2351.035156 1768.90625 L 2351.035156 1772.503906 L 2344.648438 1772.503906 L 2344.648438 1790.453125 L 2340.15625 1790.453125 Z M 2374.679688 1773.441406 L 2374.578125 1773.441406 L 2368.207031 1790.453125 L 2365.292969 1790.453125 L 2358.964844 1773.441406 L 2358.886719 1773.441406 L 2358.886719 1790.453125 L 2354.652344 1790.453125 L 2354.652344 1768.910156 L 2360.882812 1768.910156 L 2366.75 1784.167969 L 2372.601562 1768.910156 L 2378.808594 1768.910156 L 2378.808594 1790.453125 L 2374.675781 1790.453125 L 2374.675781 1773.441406 Z M 1764.574219 1331.972656 C 1764.574219 1331.972656 1719.839844 1357.988281 1796.410156 1366.789062 C 1889.171875 1377.371094 1936.582031 1375.855469 2038.808594 1356.507812 C 2038.808594 1356.507812 2065.683594 1373.359375 2103.21875 1387.957031 C 1874.058594 1486.171875 1584.582031 1382.265625 1764.574219 1331.972656 M 1736.574219 1203.808594 C 1736.574219 1203.808594 1686.398438 1240.949219 1763.027344 1248.875 C 1862.117188 1259.097656 1940.375 1259.933594 2075.785156 1233.859375 C 2075.785156 1233.859375 2094.515625 1252.847656 2123.964844 1263.230469 C 1846.894531 1344.25 1538.285156 1269.621094 1736.574219 1203.808594 "/>
<path style=" stroke:none;fill-rule:nonzero;fill:rgb(97.254902%,59.607843%,11.372549%);fill-opacity:1;" d="M 1972.640625 986.398438 C 2029.105469 1051.410156 1957.804688 1109.910156 1957.804688 1109.910156 C 1957.804688 1109.910156 2101.179688 1035.894531 2035.335938 943.210938 C 1973.835938 856.777344 1926.675781 813.832031 2181.984375 665.761719 C 2181.984375 665.761719 1781.234375 765.851562 1972.640625 986.398438 "/>
<path style=" stroke:none;fill-rule:nonzero;fill:rgb(32.54902%,50.980392%,63.137255%);fill-opacity:1;" d="M 2275.726562 1426.769531 C 2275.726562 1426.769531 2308.832031 1454.046875 2239.269531 1475.148438 C 2106.992188 1515.21875 1688.722656 1527.320312 1572.53125 1476.746094 C 1530.761719 1458.574219 1609.089844 1433.359375 1633.730469 1428.066406 C 1659.425781 1422.496094 1674.109375 1423.535156 1674.109375 1423.535156 C 1627.65625 1390.8125 1373.871094 1487.785156 1545.195312 1515.558594 C 2012.429688 1591.328125 2396.921875 1481.4375 2275.726562 1426.769531 M 1786.085938 1071.015625 C 1786.085938 1071.015625 1573.328125 1121.550781 1710.742188 1139.898438 C 1768.765625 1147.667969 1884.429688 1145.910156 1992.164062 1136.882812 C 2080.214844 1129.457031 2168.625 1113.664062 2168.625 1113.664062 C 2168.625 1113.664062 2137.578125 1126.960938 2115.117188 1142.296875 C 1899.066406 1199.121094 1481.691406 1172.683594 1601.847656 1114.5625 C 1703.464844 1065.441406 1786.085938 1071.015625 1786.085938 1071.015625 M 2167.75 1284.351562 C 2387.375 1170.222656 2285.828125 1060.550781 2214.953125 1075.324219 C 2197.578125 1078.941406 2189.832031 1082.074219 2189.832031 1082.074219 C 2189.832031 1082.074219 2196.28125 1071.972656 2208.601562 1067.597656 C 2348.820312 1018.300781 2456.660156 1212.992188 2163.335938 1290.101562 C 2163.335938 1290.105469 2166.734375 1287.066406 2167.75 1284.351562 "/>
<path style=" stroke:none;fill-rule:nonzero;fill:rgb(97.254902%,59.607843%,11.372549%);fill-opacity:1;" d="M 2035.335938 426.667969 C 2035.335938 426.667969 2156.96875 548.339844 1919.972656 735.441406 C 1729.925781 885.527344 1876.636719 971.101562 1919.894531 1068.875 C 1808.960938 968.785156 1727.546875 880.679688 1782.164062 798.675781 C 1862.328125 678.300781 2084.410156 619.9375 2035.335938 426.667969 "/>
<path style=" stroke:none;fill-rule:nonzero;fill:rgb(32.54902%,50.980392%,63.137255%);fill-opacity:1;" d="M 1807.667969 1593.609375 C 2018.484375 1607.101562 2342.214844 1586.121094 2349.878906 1486.367188 C 2349.878906 1486.367188 2335.140625 1524.183594 2175.652344 1554.214844 C 1995.71875 1588.078125 1773.792969 1584.125 1642.167969 1562.421875 C 1642.171875 1562.417969 1669.113281 1584.722656 1807.667969 1593.609375 M 1773.117188 1974.761719 C 1753.230469 1992.011719 1732.226562 2001.695312 1713.378906 2001.695312 C 1686.472656 2001.695312 1671.9375 1985.5625 1671.9375 1959.6875 C 1671.9375 1931.695312 1687.511719 1911.234375 1749.996094 1911.234375 L 1773.117188 1911.234375 L 1773.117188 1974.761719 M 1827.996094 2036.675781 L 1827.996094 1845.023438 C 1827.996094 1796.066406 1800.070312 1763.757812 1732.746094 1763.757812 C 1693.441406 1763.757812 1659.011719 1773.464844 1631.027344 1785.839844 L 1639.105469 1819.765625 C 1661.136719 1811.679688 1689.65625 1804.152344 1717.652344 1804.152344 C 1756.433594 1804.152344 1773.117188 1819.765625 1773.117188 1852.050781 L 1773.117188 1876.273438 L 1753.761719 1876.273438 C 1659.53125 1876.273438 1617.023438 1912.851562 1617.023438 1967.753906 C 1617.023438 2015.136719 1645.035156 2042.070312 1697.777344 2042.070312 C 1731.683594 2042.070312 1756.988281 2028.074219 1780.648438 2007.589844 L 1784.941406 2036.679688 L 1827.996094 2036.679688 Z M 2011.136719 2036.675781 L 1942.691406 2036.675781 L 1860.324219 1768.609375 L 1920.089844 1768.609375 L 1971.203125 1933.3125 L 1982.566406 1982.847656 C 2008.421875 1911.230469 2026.707031 1838.570312 2035.855469 1768.609375 L 2093.996094 1768.609375 C 2078.417969 1856.882812 2050.386719 1953.773438 2011.136719 2036.675781 M 2273.6875 1974.761719 C 2253.761719 1992.011719 2232.722656 2001.695312 2213.871094 2001.695312 C 2187.015625 2001.695312 2172.441406 1985.5625 2172.441406 1959.6875 C 2172.441406 1931.695312 2188.054688 1911.234375 2250.53125 1911.234375 L 2273.6875 1911.234375 L 2273.6875 1974.761719 M 2328.558594 2036.675781 L 2328.558594 1845.023438 C 2328.558594 1796.066406 2300.566406 1763.757812 2233.316406 1763.757812 C 2193.984375 1763.757812 2159.542969 1773.464844 2131.570312 1785.839844 L 2139.636719 1819.765625 C 2161.679688 1811.679688 2190.253906 1804.152344 2218.222656 1804.152344 C 2256.980469 1804.152344 2273.6875 1819.765625 2273.6875 1852.050781 L 2273.6875 1876.273438 L 2254.300781 1876.273438 C 2160.042969 1876.273438 2117.554688 1912.851562 2117.554688 1967.753906 C 2117.554688 2015.136719 2145.542969 2042.070312 2198.277344 2042.070312 C 2232.199219 2042.070312 2257.496094 2028.074219 2281.195312 2007.589844 L 2285.503906 2036.679688 L 2328.558594 2036.679688 Z M 1556.855469 2082.199219 C 1541.210938 2105.039062 1515.945312 2123.109375 1488.285156 2133.332031 L 1461.191406 2101.449219 C 1482.246094 2090.648438 1500.300781 2073.199219 1508.691406 2056.945312 C 1515.949219 2042.492188 1518.953125 2023.863281 1518.953125 1979.316406 L 1518.953125 1673.277344 L 1577.253906 1673.277344 L 1577.253906 1975.121094 C 1577.25 2034.679688 1572.488281 2058.738281 1556.855469 2082.199219 "/>
</g>
</svg>
